<svg width="1440" height="1024" viewBox="0 0 1440 1024" fill="none" xmlns="http://www.w3.org/2000/svg">
<rect width="1440" height="1024" fill="white"/>
<path fill-rule="evenodd" clip-rule="evenodd" d="M682.643 358.115C682.889 354.601 683.947 321.813 685.818 259.75C686.286 244.216 675.526 230.591 660.306 227.447C659.286 227.237 658.775 227.131 658.775 227.131C640.406 225.847 624.056 238.702 620.971 256.856L605.22 349.532" fill="white"/>
<path d="M658.953 227.844L660.434 228.15C675.297 231.22 685.805 244.525 685.348 259.695C683.478 321.716 682.419 354.533 682.174 358.031C682.145 358.444 682.457 358.802 682.87 358.831C683.283 358.86 683.642 358.549 683.671 358.135C683.918 354.605 684.975 321.846 686.847 259.74C687.326 243.842 676.314 229.898 660.737 226.681L659.206 226.365L659.107 226.351C640.353 225.039 623.66 238.164 620.511 256.699L604.76 349.374C604.691 349.783 604.966 350.17 605.374 350.239C605.783 350.309 606.17 350.034 606.239 349.626L621.989 256.95C625.007 239.192 640.988 226.613 658.953 227.844Z" fill="#F56843"/>
<path fill-rule="evenodd" clip-rule="evenodd" d="M694.858 349.958L702.905 287.398C703.68 281.375 699.425 275.865 693.402 275.09C692.937 275.03 692.469 275 692 275C684.544 275 677.933 279.795 675.618 286.882L655 350L694.858 349.958Z" fill="white"/>
<path d="M695.505 350.25C695.882 350.25 696.2 349.969 696.248 349.596L704.295 287.035C705.122 280.601 700.578 274.715 694.144 273.887C693.647 273.824 693.147 273.792 692.646 273.792C684.865 273.792 677.967 278.795 675.551 286.191L654.933 349.309C654.774 349.794 655.136 350.292 655.646 350.292L695.505 350.25ZM694.844 348.751L656.68 348.79L676.977 286.656C679.191 279.878 685.514 275.292 692.646 275.292C693.083 275.292 693.519 275.319 693.953 275.375C699.565 276.097 703.529 281.232 702.807 286.844L694.844 348.751Z" fill="#F56843"/>
<path fill-rule="evenodd" clip-rule="evenodd" d="M496.5 503.5L572.872 478.605C581.528 475.784 587.843 468.307 589.176 459.301L605.5 349H694L678.341 489.147C675.583 513.834 662.285 536.122 641.871 550.274L555 610.5L496.5 503.5Z" fill="#FFD1D1"/>
<path fill-rule="evenodd" clip-rule="evenodd" d="M680 476.5C662.333 486.167 649.5 497.167 641.5 509.5C633.5 521.833 626.667 540.333 621 565C625.893 561.431 630.06 558.431 633.5 556C647.586 546.045 658.413 536.99 665 526.5C674 512.167 679 495.5 680 476.5Z" fill="#FFAFAF"/>
<path d="M583.871 470.092C583.877 470.082 583.884 470.073 583.89 470.063C583.91 470.036 583.93 470.011 583.952 469.987C586.362 466.885 587.993 463.166 588.59 459.129L604.9 348.932C604.954 348.564 605.27 348.292 605.641 348.292H694.141C694.589 348.292 694.937 348.68 694.887 349.125L688.086 409.991C688.202 410.136 688.265 410.325 688.247 410.526C688.228 410.737 688.122 410.921 687.969 411.044L679.238 489.186C676.45 514.138 662.988 536.658 642.331 550.928L555.926 610.617C555.649 610.808 555.278 610.792 555.02 610.576C543.129 600.658 533.233 588.079 525.334 572.845C517.455 557.65 508.608 534.112 498.783 502.221C498.662 501.828 498.88 501.41 499.272 501.285L572.657 477.875C577.178 476.433 581.049 473.682 583.871 470.092ZM523.917 494.998L500.436 502.489C510.148 533.941 518.895 557.167 526.666 572.155C534.378 587.029 544.004 599.328 555.544 609.058L577.563 593.847L523.917 494.998ZM525.372 494.534L578.805 592.989L641.478 549.694C661.778 535.671 675.007 513.54 677.747 489.019L686.451 411.117L598.433 403.205C598.416 403.204 598.4 403.202 598.384 403.199L590.074 459.348C589.474 463.403 587.895 467.156 585.565 470.34L637.937 507.89C638.274 508.132 638.351 508.6 638.109 508.937C637.868 509.274 637.4 509.351 637.063 509.109L584.642 471.524C581.677 475.099 577.711 477.837 573.113 479.304L525.372 494.534ZM598.604 401.715L686.618 409.626L693.303 349.792H606.289L598.604 401.715Z" fill="#F56843"/>
<path fill-rule="evenodd" clip-rule="evenodd" d="M359 519C359 519 335.667 531.167 289 555.5L308.858 591.958L369 551.458C362.333 529.819 359 519 359 519Z" fill="#FFAFAF"/>
<path fill-rule="evenodd" clip-rule="evenodd" d="M823 684.5L808.5 566.5L816 563L847 517L852.5 515.5C854.49 515.025 855.99 515.025 857 515.5C858.01 515.976 859.344 517.309 861 519.5V659.5C859.899 662.148 858.899 663.981 858 665C857.101 666.019 855.601 667.019 853.5 668L823 684.5ZM689.5 788.5L784.5 753.5L789 766.5L851 782.5L853.5 787C852.936 790.306 852.269 792.639 851.5 794C850.731 795.361 849.231 796.861 847 798.5L717.5 829C714.821 829.269 712.654 828.935 711 828C709.346 827.065 707.679 825.232 706 822.5L689.5 788.5Z" fill="white"/>
<path d="M358.295 518.376L288.295 554.876C287.923 555.07 287.782 555.532 287.983 555.9L307.841 592.359C308.053 592.747 308.552 592.869 308.919 592.622L369.06 552.122C369.335 551.937 369.456 551.595 369.358 551.279L359.358 518.821C359.22 518.373 358.71 518.16 358.295 518.376ZM367.761 551.189L308.764 590.917L289.665 555.853L358.19 520.123L367.761 551.189Z" fill="#F56843"/>
<path fill-rule="evenodd" clip-rule="evenodd" d="M573.5 643V644.542L505 512L408 553C409.808 612.195 418.094 651.528 432.858 671C447.623 690.472 473.837 696.639 511.5 689.5H566L573.5 643Z" fill="#FFD1D1"/>
<path d="M574.391 643V644.542C574.391 644.831 574.249 645.048 574.051 645.173L566.882 689.62C566.823 689.983 566.51 690.25 566.141 690.25H511.712C473.834 697.416 447.358 691.178 432.402 671.453C417.517 651.821 409.204 612.363 407.391 553.023C407.382 552.713 407.564 552.43 407.85 552.309L504.85 511.309C505.21 511.157 505.628 511.308 505.808 511.656L573.332 642.31C573.776 642.124 574.391 642.375 574.391 643ZM574.198 644.254L574.232 644.05L574.118 643.831C574.186 643.961 574.213 644.109 574.198 644.254ZM504.794 512.961L408.907 553.491C410.743 612.254 418.997 651.291 433.598 670.547C448.161 689.754 474.09 695.854 511.502 688.763L511.641 688.75H565.503L572.672 644.3L504.794 512.961Z" fill="#F56843"/>
<path fill-rule="evenodd" clip-rule="evenodd" d="M555.5 610.5L560.5 620C545.136 632.12 532.969 640.62 524 645.5C515.031 650.38 505.198 654.88 494.5 659L488.5 648.5C498.251 644.29 507.585 639.623 516.5 634.5C525.415 629.377 538.415 621.377 555.5 610.5Z" fill="#FFAFAF"/>
<path fill-rule="evenodd" clip-rule="evenodd" d="M585 814L822 685.5L809 567L574 682.5" fill="#FFAFAF"/>
<path d="M555.081 609.378C537.502 621.228 523.85 629.885 514.132 635.346C504.433 640.798 495.31 644.945 486.763 647.788C486.37 647.919 486.158 648.344 486.288 648.737C486.419 649.13 486.844 649.343 487.237 649.212C495.879 646.336 505.089 642.15 514.867 636.654C524.627 631.168 538.309 622.492 555.919 610.622C556.263 610.39 556.353 609.924 556.122 609.581C555.89 609.237 555.424 609.147 555.081 609.378Z" fill="#F56843"/>
<path d="M560.405 619.402C544.085 631.779 529.829 641.258 517.644 647.84C505.511 654.393 497.239 657.868 492.933 658.253C492.521 658.29 492.216 658.654 492.253 659.067C492.29 659.479 492.654 659.784 493.067 659.747C497.648 659.337 506.042 655.811 518.356 649.16C530.617 642.537 544.934 633.017 561.312 620.598C561.642 620.347 561.706 619.877 561.456 619.547C561.206 619.217 560.735 619.152 560.405 619.402Z" fill="#F56843"/>
<path d="M821.448 684.822C821.422 684.758 821.404 684.69 821.396 684.619L808.4 567.658L573.973 683.173C573.601 683.356 573.152 683.203 572.969 682.831C572.786 682.46 572.938 682.01 573.31 681.827L814.632 562.915L845.502 517.403C846.589 515.801 848.408 514.854 850.344 514.88C851.03 514.89 851.686 515.02 852.293 515.25C852.334 515.181 852.402 515.097 852.5 515C852.833 514.666 853.223 514.456 853.669 514.367C854.12 514.277 854.578 514.231 855.037 514.23C858.92 514.224 862.072 517.367 862.078 521.25L862.288 655.554C862.297 661.329 859.419 667.013 853.893 668.409L853.891 668.511C853.888 668.782 853.737 669.03 853.499 669.159L584.999 814.659C584.635 814.857 584.179 814.721 583.982 814.357C583.785 813.993 583.92 813.538 584.284 813.34L821.448 684.822ZM822.844 684.065L852.398 668.05L854.511 520.692C854.544 518.345 852.669 516.415 850.322 516.381C848.892 516.361 847.547 517.061 846.744 518.245L815.762 563.921C815.689 564.028 815.59 564.115 815.473 564.173L809.689 567.023C809.796 567.137 809.868 567.286 809.887 567.453L822.844 684.065ZM853.836 516.127C855.184 517.198 856.038 518.859 856.012 520.713L853.915 666.846C858.517 665.451 860.796 660.503 860.788 655.557L860.578 521.252C860.574 518.198 858.094 515.726 855.039 515.73C854.678 515.731 854.318 515.767 853.963 515.838C853.919 515.948 853.877 516.044 853.836 516.127Z" fill="#F56843"/>
<path fill-rule="evenodd" clip-rule="evenodd" d="M396 667.036L403.642 708.536L460.636 809.134C475.632 835.604 507.597 847.31 536.142 836.786L556.118 829.421C575.336 822.336 591.915 809.52 603.612 792.706L655.24 718.5L689.5 788.5L784.5 753.5L717.714 595.552C710.397 578.246 693.431 567 674.642 567C654.788 567 635.743 574.865 621.676 588.875L532.142 678.036" fill="#FFD1D1"/>
<path fill-rule="evenodd" clip-rule="evenodd" d="M618 592.5C634 604.833 650.667 613.667 668 619C685.333 624.333 704.5 623.167 725.5 615.5C720.813 599.971 715.646 589.137 710 583C703.274 575.688 690.732 569.179 683.5 567.5C674.011 565.297 656.485 567.846 642.5 574.5C635.772 577.701 627.605 583.701 618 592.5Z" fill="#FFAFAF"/>
<path d="M853.261 785.387L853.531 785.321L853.542 785.368C855.099 791.827 851.125 798.326 844.665 799.883L719.76 829.995C714.124 831.354 708.297 828.758 705.524 823.705C705.287 823.667 705.075 823.516 704.966 823.29L655.122 719.946L604.228 793.098C592.443 810.038 575.739 822.95 556.377 830.089L536.401 837.454C507.512 848.105 475.161 836.257 459.983 809.468L402.989 708.87C402.948 708.797 402.919 708.718 402.904 708.636L395.263 667.136C395.188 666.728 395.457 666.337 395.864 666.262C396.272 666.187 396.663 666.457 396.738 666.864L404.356 708.24L461.288 808.728C476.103 834.878 507.683 846.443 535.882 836.046L555.858 828.681C574.932 821.649 591.387 808.929 602.997 792.241L654.624 718.036C654.952 717.564 655.666 717.621 655.916 718.138L689.472 787.711L783.4 753.106L727.032 619.567V619.567C693.677 635.827 656.393 628.028 615.273 596.273L532.671 678.531C532.377 678.824 531.903 678.823 531.61 678.529C531.318 678.236 531.319 677.761 531.612 677.469L621.146 588.307C635.355 574.158 654.59 566.214 674.642 566.214C693.731 566.214 710.965 577.645 718.388 595.232L784.937 752.891C785.055 752.975 785.15 753.094 785.204 753.241C785.249 753.364 785.26 753.491 785.242 753.612L790.187 765.328L848.928 780.159C851.027 780.689 852.651 782.353 853.129 784.465C853.199 784.773 853.242 785.082 853.261 785.387ZM852.36 788.84C851.573 790.066 850.323 790.995 848.79 791.342L707.084 823.407C709.618 827.588 714.592 829.698 719.409 828.537L844.314 798.425C848.92 797.315 852.082 793.334 852.36 788.84ZM690.126 789.069L706.058 822.101L848.459 789.879C850.748 789.361 852.184 787.085 851.666 784.796C851.313 783.235 850.113 782.005 848.561 781.613L789.458 766.691C789.23 766.633 789.042 766.472 788.951 766.256L783.984 754.489L690.126 789.069ZM726.448 618.183L717.006 595.815C709.817 578.784 693.128 567.714 674.642 567.714C654.987 567.714 636.132 575.501 622.205 589.37L616.345 595.205C657.019 626.564 693.689 634.189 726.448 618.183V618.183Z" fill="#F56843"/>
<path fill-rule="evenodd" clip-rule="evenodd" d="M445 502L257.983 621.433C215.443 648.6 199.818 703.209 221.548 748.766L234.959 776.882C258.737 826.73 318.422 847.865 368.27 824.087C370.932 822.818 373.537 821.431 376.076 819.931L461.631 769.395C477.564 759.983 490.573 746.335 499.211 729.969L500.25 728C509.201 711.04 509.481 690.817 501.003 673.616L480 631C448.824 654.244 431.991 670.244 429.5 679C427.279 686.808 401.859 702.894 353.24 727.257C342.695 732.541 329.86 728.839 323.75 718.75C318.842 710.646 321.433 700.099 329.536 695.191C330.463 694.63 331.44 694.158 332.455 693.781L423.5 660" fill="#FFD1D1"/>
<path fill-rule="evenodd" clip-rule="evenodd" d="M219 744C221.5 751 232.355 772.914 236.5 780C240.86 787.455 245.5 794.5 251.5 801.5C257.442 808.432 265.436 815.285 277.5 821.5C281.536 823.579 285.87 825.746 290.5 828C287.386 801.721 283.886 783.388 280 773C276.85 764.578 273.646 756.137 269 749.5C257.333 732.833 238.476 715.987 212.43 698.96C210.143 710.32 212.333 725.333 219 744Z" fill="#FFAFAF"/>
<path fill-rule="evenodd" clip-rule="evenodd" d="M433 669.5L434 682.5C446.032 705.275 453.429 719.024 456.192 723.748C459.099 728.717 464.868 740.968 473.5 760.5C483.173 752.122 490.84 743.455 496.5 734.5C502.16 725.545 505.66 716.545 507 707.5C508.333 695.5 505 682 497 667C493.01 659.518 487.176 647.018 479.5 629.5C457.742 641.022 442.575 650.522 434 658C425.425 665.479 425.092 669.312 433 669.5Z" fill="white"/>
<path d="M499.972 673.489C508.344 690.475 508.067 710.444 499.228 727.192L498.189 729.161C489.616 745.404 476.705 758.95 460.891 768.29L375.03 819.007C372.602 820.441 370.114 821.771 367.573 822.994C318.176 846.753 258.871 825.97 235.111 776.572L222.197 749.722C200.604 704.831 215.634 650.888 257.328 623.629L442.41 502.628C442.757 502.401 442.854 501.936 442.628 501.59C442.401 501.243 441.936 501.146 441.59 501.372L256.507 622.374C214.183 650.045 198.926 704.802 220.845 750.372L233.76 777.223C257.878 827.366 318.08 848.464 368.224 824.345C370.803 823.105 373.329 821.755 375.793 820.299L461.654 769.582C477.707 760.1 490.813 746.349 499.516 729.861L500.555 727.892C509.618 710.719 509.902 690.243 501.318 672.826L480.314 630.21C480.136 629.848 479.703 629.692 479.335 629.857C454.467 641.007 439.209 649.351 433.475 654.964C430.854 657.531 429.4 660.774 428.805 664.707C428.434 667.16 428.408 669.278 428.559 673.067C428.692 676.396 428.682 677.417 428.42 678.336C426.291 685.822 400.84 701.928 352.546 726.128C342.35 731.237 329.941 727.657 324.033 717.903C319.413 710.274 321.852 700.343 329.481 695.722C330.421 695.153 331.416 694.682 332.451 694.315L427.251 660.707C427.641 660.569 427.845 660.14 427.707 659.749C427.569 659.359 427.14 659.155 426.749 659.293L331.95 692.901C330.818 693.302 329.731 693.818 328.704 694.439C320.366 699.489 317.7 710.342 322.75 718.68C329.063 729.103 342.323 732.929 353.218 727.469C402.161 702.943 427.55 686.877 429.863 678.747C430.189 677.6 430.2 676.557 430.058 673.007C429.91 669.309 429.936 667.262 430.288 664.932C430.838 661.299 432.158 658.353 434.525 656.036C440.034 650.643 454.982 642.447 479.289 631.522L499.972 673.489Z" fill="#F56843"/>
<path fill-rule="evenodd" clip-rule="evenodd" d="M505.142 511.9C487.67 473.085 477.17 447.299 473.642 434.541C462.204 393.189 454.222 357.119 411.499 357.119C368.776 357.119 334.142 391.754 334.142 434.478C334.142 446.647 344.642 485.669 365.642 551.541C396.613 551.417 421.67 549.875 440.813 546.915C459.956 543.954 481.399 532.283 505.142 511.9Z" fill="#FFD1D1" stroke="#F56843" stroke-width="1.5" stroke-linecap="round" stroke-linejoin="round"/>
<path fill-rule="evenodd" clip-rule="evenodd" d="M505 511.781C487.529 472.966 477.029 447.18 473.5 434.422C462.062 393.07 454.08 357 411.357 357C368.634 357 334 391.635 334 434.359C334 446.528 344.5 485.549 365.5 551.422C396.472 551.298 421.529 549.756 440.671 546.795C459.814 543.835 481.257 532.164 505 511.781Z" fill="#FFD1D1"/>
<path fill-rule="evenodd" clip-rule="evenodd" d="M505 511.781C487.529 472.966 477.029 447.18 473.5 434.422C462.062 393.07 454.08 357 411.357 357C368.634 357 334 391.635 334 434.359C334 446.528 344.5 485.549 365.5 551.422C396.472 551.298 421.529 549.756 440.671 546.795C459.814 543.835 481.257 532.164 505 511.781Z" stroke="#F56843" stroke-width="1.5" stroke-linecap="round" stroke-linejoin="round"/>
<path d="M505.684 511.473C488.229 472.694 477.738 446.93 474.223 434.222C473.763 432.559 471.724 425.132 471.175 423.151C464.445 398.866 459.788 386.465 452.291 376.046C442.823 362.888 429.872 356.25 411.357 356.25C368.22 356.25 333.25 391.22 333.25 434.359C333.25 446.644 343.751 485.669 364.785 551.65C364.885 551.962 365.175 552.172 365.503 552.172C396.509 552.048 421.601 550.503 440.786 547.537C460.088 544.552 481.649 532.816 505.489 512.35C505.741 512.133 505.82 511.776 505.684 511.473ZM440.557 546.054C421.569 548.991 396.731 550.53 366.047 550.67C345.193 485.223 334.75 446.38 334.75 434.359C334.75 392.049 369.048 357.75 411.357 357.75C429.39 357.75 441.888 364.156 451.073 376.922C458.432 387.149 463.046 399.436 469.73 423.552C470.278 425.53 472.316 432.956 472.777 434.622C476.304 447.373 486.736 473.011 504.086 511.576C480.609 531.65 459.427 543.136 440.557 546.054Z" fill="#F56843"/>
<path d="M375.174 469.959C375.174 469.959 416.943 486.36 480.409 464.056C481.5 463.673 482.696 462.988 484 462C480.718 455.435 478.718 450.935 478 448.5C475.075 438.588 474.804 432.292 471.5 426C469.364 421.934 468.617 414.996 466.5 408.5C465.358 404.996 463.191 399.496 460 392C456.829 385.706 454.662 381.539 453.5 379.5C451.72 376.378 451.719 373.33 449.399 373.668C436.855 375.494 423.329 383.629 408.819 398.075C375.101 431.645 375.174 469.959 375.174 469.959Z" fill="#F56843"/>
<path fill-rule="evenodd" clip-rule="evenodd" d="M402 405.5C405.5 401.5 407.437 398.995 410.5 396C413.563 393.005 417.5 389.5 424.5 384.5C428.167 394.167 431.833 404.667 436.5 419C443.5 440.5 432.416 443.89 419 429.5C410.056 419.907 404.722 412.24 402 405.5ZM441.66 404.257C444.154 404.432 445.512 415.253 446.274 417.111C446.699 418.146 446.204 419.33 445.169 419.754C444.223 420.142 443.136 419.765 442.634 418.874C439.712 413.688 438.262 410.575 438.283 409.535C438.338 406.906 439.166 404.083 441.66 404.257Z" fill="white"/>
<path d="M427.642 658C461.331 658 488.642 630.689 488.642 597C488.642 563.311 461.331 536 427.642 536C393.952 536 366.642 563.311 366.642 597C366.642 630.689 393.952 658 427.642 658Z" fill="#F56843"/>
<path d="M375.873 464.835C370.6 441.434 378.345 419.188 399.176 398.026C420.012 376.86 434.732 366.605 443.084 367.248C443.497 367.279 442.968 367.413 443 367C443.032 366.587 442.913 366.532 442.5 366.5C442.261 366.481 442.717 365.723 442.47 365.72C433.418 365.623 418.709 376.045 398.107 396.974C376.938 418.479 369.017 441.232 374.41 465.165C374.501 465.569 374.902 465.822 375.307 465.731C375.711 465.64 375.964 465.239 375.873 464.835Z" fill="#F56843"/>
<path fill-rule="evenodd" clip-rule="evenodd" d="M388.142 644.5L410.642 586.964L467.073 570.607C469.194 569.992 471.413 571.213 472.028 573.335C472.398 574.613 472.11 575.99 471.257 577.012L439.142 615.5L436.5 658L388.142 644.5Z" fill="white"/>
<path fill-rule="evenodd" clip-rule="evenodd" d="M410.516 587C402.84 595.385 397.96 600.897 395.875 603.536C384.928 617.392 385.331 622.63 390.516 626C400.516 632.5 410.875 645.536 417.875 633.536C422.541 625.536 420.088 610.024 410.516 587Z" fill="#FFD1D1"/>
<path d="M410.088 586.458C410.459 586.053 411.124 586.17 411.334 586.676C420.992 609.907 423.474 625.604 418.648 633.878C415.895 638.597 412.39 640.016 408.094 638.649C404.991 637.661 402.642 636.056 396.402 631.151C394.908 629.976 394.033 629.3 393.094 628.6C392.057 627.829 391.122 627.171 390.233 626.593C383.947 622.507 385.094 616.094 395.412 603.035C397.512 600.377 402.399 594.857 410.088 586.458ZM417.352 633.122C421.787 625.52 419.511 610.557 410.399 588.341C403.193 596.224 398.586 601.437 396.589 603.965C386.744 616.426 385.765 621.9 391.05 625.335C391.969 625.932 392.929 626.608 393.989 627.397C394.942 628.106 395.825 628.789 397.329 629.972C403.399 634.744 405.693 636.311 408.549 637.22C412.165 638.371 414.948 637.244 417.352 633.122ZM440.884 613.572C441.12 613.232 441.588 613.148 441.928 613.384C442.268 613.62 442.352 614.088 442.116 614.428C439.211 618.611 436.537 620.75 434 620.75C433.586 620.75 433.25 620.414 433.25 620C433.25 619.586 433.586 619.25 434 619.25C435.907 619.25 438.234 617.389 440.884 613.572Z" fill="#F56843"/>
<path d="M372.5 479C376.642 479 380 475.642 380 471.5C380 467.358 376.642 464 372.5 464C368.358 464 365 467.358 365 471.5C365 475.642 368.358 479 372.5 479Z" fill="white"/>
<path d="M372.142 479.75C376.698 479.75 380.392 476.056 380.392 471.5C380.392 466.944 376.698 463.25 372.142 463.25C367.585 463.25 363.892 466.944 363.892 471.5C363.892 476.056 367.585 479.75 372.142 479.75ZM372.142 478.25C368.414 478.25 365.392 475.228 365.392 471.5C365.392 467.772 368.414 464.75 372.142 464.75C375.87 464.75 378.892 467.772 378.892 471.5C378.892 475.228 375.87 478.25 372.142 478.25Z" fill="#F56843"/>
<path d="M372.142 475.75C374.744 475.75 376.892 473.871 376.892 471.5C376.892 469.129 374.744 467.25 372.142 467.25C369.539 467.25 367.392 469.129 367.392 471.5C367.392 473.871 369.539 475.75 372.142 475.75ZM372.142 474.25C370.326 474.25 368.892 472.995 368.892 471.5C368.892 470.005 370.326 468.75 372.142 468.75C373.957 468.75 375.392 470.005 375.392 471.5C375.392 472.995 373.957 474.25 372.142 474.25Z" fill="#F56843"/>
<path fill-rule="evenodd" clip-rule="evenodd" d="M436.5 654.5L433.642 682.5L391.142 707.5L357.5 725L341 703C354.796 702.201 362.629 700.034 364.5 696.5C370.037 686.04 377.87 668.873 388 645L436.5 654.5Z" fill="white"/>
<path d="M436.644 653.264C437.024 653.339 437.285 653.691 437.246 654.076L434.388 682.076C434.363 682.314 434.227 682.525 434.022 682.647L391.488 707.665L357.846 725.165C357.52 725.335 357.12 725.244 356.9 724.95L340.4 702.95C340.041 702.472 340.359 701.786 340.957 701.751C354.474 700.968 362.145 698.846 363.837 695.649C369.362 685.213 377.187 668.062 387.309 644.207C387.448 643.881 387.796 643.696 388.144 643.764L436.644 653.264ZM388.453 645.353C378.43 668.953 370.669 685.95 365.163 696.351C363.182 700.092 355.646 702.284 342.434 703.162L357.718 723.541L390.761 706.354L432.934 681.546L435.684 654.605L388.453 645.353ZM433.261 681.354L432.895 681.924L432.934 681.546L433.261 681.354Z" fill="#F56843"/>
<path fill-rule="evenodd" clip-rule="evenodd" d="M254 450C249.029 450 245 445.971 245 441C245 436.029 249.029 432 254 432C258.971 432 263 436.029 263 441C263 445.971 258.971 450 254 450ZM342 472.5L344.358 481.5C343.793 481.692 343.233 481.9 342.679 482.124C326.868 488.523 319.239 506.528 325.638 522.339L330.358 534L321.358 539L316.034 521.667C310.291 502.97 319.285 482.911 337.066 474.762L342 472.5Z" fill="white"/>
<path d="M274.742 483.11C274.765 482.956 274.739 482.799 274.669 482.661L257.669 449.161C257.481 448.791 257.03 448.644 256.661 448.831C256.291 449.019 256.144 449.47 256.331 449.84L273.223 483.127L271.258 496.39C271.208 496.729 271.394 497.06 271.71 497.192L285.423 502.931L307.839 544.588C308.036 544.952 308.491 545.089 308.855 544.893C309.22 544.696 309.357 544.241 309.16 543.877L286.618 501.986C286.537 501.835 286.406 501.716 286.247 501.65L272.827 496.033L274.742 483.11Z" fill="#F56843"/>
<path d="M253.642 450.75C248.257 450.75 243.892 446.385 243.892 441C243.892 435.615 248.257 431.25 253.642 431.25C259.026 431.25 263.392 435.615 263.392 441C263.392 446.385 259.026 450.75 253.642 450.75ZM253.642 449.25C258.198 449.25 261.892 445.556 261.892 441C261.892 436.444 258.198 432.75 253.642 432.75C249.085 432.75 245.392 436.444 245.392 441C245.392 445.556 249.085 449.25 253.642 449.25ZM341.329 471.818C341.753 471.624 342.249 471.859 342.367 472.31L344.726 481.31C344.825 481.691 344.614 482.084 344.241 482.21C343.689 482.397 343.142 482.6 342.602 482.819C327.175 489.063 319.731 506.631 325.975 522.058L330.695 533.719C330.837 534.07 330.695 534.472 330.364 534.656L321.364 539.656C320.947 539.887 320.423 539.676 320.283 539.22L314.959 521.887C309.105 502.831 318.272 482.386 336.395 474.08L341.329 471.818ZM337.02 475.443C319.581 483.436 310.76 503.109 316.393 521.446L321.445 537.895L329.056 533.667L324.585 522.62C318.03 506.426 325.844 487.984 342.039 481.429C342.39 481.287 342.743 481.151 343.099 481.021L341.142 473.554L337.02 475.443Z" fill="#F56843"/>
<path d="M272.681 744.332C285.779 762.186 294.122 790.717 297.747 829.931L296.253 830.069C292.598 790.529 284.135 761.987 270.901 744.452C260.084 730.119 248.469 718.313 236.509 708.796C227.732 701.81 219.519 696.632 212.324 693.022L212.997 691.681C220.281 695.336 228.582 700.57 237.444 707.622C249.38 717.121 260.97 728.875 271.773 743.118L322.143 715.841C322.507 715.643 322.962 715.779 323.16 716.143C323.357 716.507 323.222 716.962 322.857 717.16L272.681 744.332ZM344.233 730.151C344.035 729.788 344.169 729.332 344.532 729.133C344.896 728.935 345.351 729.069 345.55 729.432L390.158 811.141C390.357 811.504 390.223 811.96 389.86 812.158C389.496 812.357 389.04 812.223 388.842 811.86L344.233 730.151ZM327.866 695.67C328.049 696.041 327.895 696.491 327.523 696.673C327.152 696.856 326.702 696.703 326.52 696.331L282.327 606.331C282.144 605.959 282.298 605.51 282.67 605.327C283.041 605.144 283.491 605.298 283.673 605.67L327.866 695.67Z" fill="#F56843"/>
<path d="M366 552L388.142 597" stroke="#F56843" stroke-width="1.5" stroke-linecap="round" stroke-linejoin="round"/>
<path d="M433.892 682.25L473.5 760.153" stroke="#F56843" stroke-width="1.5" stroke-linecap="round" stroke-linejoin="round"/>
<path d="M1059.3 325.778C1059.7 325.666 1060.11 325.898 1060.22 326.297C1060.33 326.695 1060.1 327.11 1059.7 327.222L996.061 345.149C980.512 349.529 971.457 365.685 975.837 381.234C976.858 384.859 978.569 388.252 980.877 391.227L990.209 403.263C999.256 414.931 997.132 431.724 985.464 440.771C980.225 444.834 973.663 446.804 967.052 446.301L934.96 443.857C918.668 442.616 902.761 449.218 892.136 461.63L876.57 479.814C876.3 480.129 875.827 480.165 875.512 479.896C875.198 479.627 875.161 479.153 875.43 478.839L890.996 460.655C901.933 447.879 918.305 441.084 935.074 442.361L967.166 444.805C973.406 445.28 979.599 443.42 984.545 439.586C995.558 431.046 997.563 415.195 989.023 404.182L979.691 392.146C977.266 389.018 975.467 385.451 974.394 381.641C969.789 365.295 979.308 348.31 995.654 343.706L1059.3 325.778ZM949 543V530C949 529.448 949.448 529 950 529C950.552 529 951 529.448 951 530V543H964C964.552 543 965 543.448 965 544C965 544.552 964.552 545 964 545H951V558C951 558.552 950.552 559 950 559C949.448 559 949 558.552 949 558V545H936C935.448 545 935 544.552 935 544C935 543.448 935.448 543 936 543H949ZM481 223V210C481 209.448 481.448 209 482 209C482.552 209 483 209.448 483 210V223H496C496.552 223 497 223.448 497 224C497 224.552 496.552 225 496 225H483V238C483 238.552 482.552 239 482 239C481.448 239 481 238.552 481 238V225H468C467.448 225 467 224.552 467 224C467 223.448 467.448 223 468 223H481ZM905 281V268C905 267.448 905.448 267 906 267C906.552 267 907 267.448 907 268V281H920C920.552 281 921 281.448 921 282C921 282.552 920.552 283 920 283H907V296C907 296.552 906.552 297 906 297C905.448 297 905 296.552 905 296V283H892C891.448 283 891 282.552 891 282C891 281.448 891.448 281 892 281H905ZM176 543V533C176 532.448 176.448 532 177 532C177.552 532 178 532.448 178 533V543H188C188.552 543 189 543.448 189 544C189 544.552 188.552 545 188 545H178V555C178 555.552 177.552 556 177 556C176.448 556 176 555.552 176 555V545H166C165.448 545 165 544.552 165 544C165 543.448 165.448 543 166 543H176ZM789.5 398V388.5C789.5 387.948 789.948 387.5 790.5 387.5C791.052 387.5 791.5 387.948 791.5 388.5V398H801C801.552 398 802 398.448 802 399C802 399.552 801.552 400 801 400H791.5V409.5C791.5 410.052 791.052 410.5 790.5 410.5C789.948 410.5 789.5 410.052 789.5 409.5V400H780C779.448 400 779 399.552 779 399C779 398.448 779.448 398 780 398H789.5ZM535.5 368.5V359C535.5 358.448 535.948 358 536.5 358C537.052 358 537.5 358.448 537.5 359V368.5H547C547.552 368.5 548 368.948 548 369.5C548 370.052 547.552 370.5 547 370.5H537.5V380C537.5 380.552 537.052 381 536.5 381C535.948 381 535.5 380.552 535.5 380V370.5H526C525.448 370.5 525 370.052 525 369.5C525 368.948 525.448 368.5 526 368.5H535.5Z" fill="#F56843"/>
<path fill-rule="evenodd" clip-rule="evenodd" d="M437.168 586.482C432.31 583 428.336 582.13 425.245 583.87C420.609 586.482 414.647 591.705 417.959 598.233C421.271 604.762 423.92 609.985 427.232 609.985C430.544 609.985 436.505 610.637 439.817 603.456C442.025 598.668 441.142 593.01 437.168 586.482Z" fill="#FFD1D1"/>
<path fill-rule="evenodd" clip-rule="evenodd" d="M436.896 589.485C436.554 593.026 435.374 595.307 433.359 596.33C431.596 597.224 428.838 597.745 425.086 597.892C423.43 597.957 422.036 596.668 421.971 595.012C421.948 594.445 422.087 593.883 422.372 593.392C424.435 589.826 426.264 587.639 427.859 586.83C429.532 585.981 431.716 585.783 434.409 586.237C435.962 586.499 437.048 587.917 436.896 589.485Z" fill="white"/>
<path d="M435.653 590.669C435.149 591.461 434.15 592 433 592C431.343 592 430 590.881 430 589.5C430 588.152 431.28 587.053 432.882 587.002C430.819 586.78 429.141 587.009 427.839 587.669C426.409 588.394 424.658 590.488 422.662 593.937C422.449 594.306 422.345 594.727 422.362 595.153C422.41 596.394 423.456 597.361 424.698 597.313C428.352 597.169 431.014 596.667 432.661 595.831C434.211 595.045 435.219 593.346 435.653 590.669ZM434.243 587.224C434.492 587.304 434.721 587.426 434.922 587.58C434.717 587.438 434.489 587.317 434.243 587.224ZM437.285 589.727C436.919 593.499 435.621 596.012 433.339 597.169C431.461 598.121 428.608 598.66 424.757 598.811C422.687 598.893 420.944 597.281 420.863 595.211C420.835 594.502 421.009 593.8 421.364 593.186C423.494 589.504 425.402 587.223 427.161 586.331C428.994 585.401 431.336 585.189 434.175 585.667C436.116 585.995 437.474 587.767 437.285 589.727Z" fill="#F56843"/>
<path fill-rule="evenodd" clip-rule="evenodd" d="M468.5 570.26C466.16 569.675 463.692 570.077 461.095 571.466L461.095 571.467C460.608 571.727 460.425 572.333 460.685 572.82C460.74 572.923 460.813 573.015 460.899 573.093C461.891 573.981 463.091 574.486 464.5 574.606C466.366 574.766 468.533 574.766 471 574.606C472 572.375 471.167 570.927 468.5 570.26Z" fill="#FFD1D1"/>
<path d="M469.182 569.426C466.651 568.793 463.994 569.226 461.241 570.699C460.389 571.155 460.068 572.215 460.524 573.067C460.62 573.247 460.747 573.409 460.899 573.545C462.014 574.544 463.368 575.113 464.936 575.247C466.843 575.41 469.046 575.41 471.548 575.248C471.826 575.23 472.071 575.06 472.184 574.807C473.386 572.125 472.279 570.2 469.182 569.426ZM465.064 573.753C463.815 573.646 462.768 573.206 461.9 572.428C461.878 572.409 461.86 572.386 461.847 572.36C461.781 572.238 461.827 572.087 461.949 572.021C464.39 570.716 466.67 570.344 468.818 570.881C470.875 571.396 471.513 572.259 470.981 573.78C468.744 573.908 466.771 573.899 465.064 573.753Z" fill="#F56843"/>
<path fill-rule="evenodd" clip-rule="evenodd" d="M1090 281L1080 283.5L1105.5 308.5L1108.5 298.5" fill="white"/>
<path d="M706.5 790C710.642 790 714 786.642 714 782.5C714 778.358 710.642 775 706.5 775C702.358 775 699 778.358 699 782.5C699 786.642 702.358 790 706.5 790Z" fill="white"/>
<path d="M706.142 790.75C710.698 790.75 714.392 787.056 714.392 782.5C714.392 777.944 710.698 774.25 706.142 774.25C701.585 774.25 697.892 777.944 697.892 782.5C697.892 787.056 701.585 790.75 706.142 790.75ZM706.142 789.25C702.414 789.25 699.392 786.228 699.392 782.5C699.392 778.772 702.414 775.75 706.142 775.75C709.87 775.75 712.892 778.772 712.892 782.5C712.892 786.228 709.87 789.25 706.142 789.25Z" fill="#F56843"/>
<path d="M819.5 671C823.642 671 827 667.642 827 663.5C827 659.358 823.642 656 819.5 656C815.358 656 812 659.358 812 663.5C812 667.642 815.358 671 819.5 671Z" fill="white"/>
<path d="M819.5 671.75C824.056 671.75 827.75 668.056 827.75 663.5C827.75 658.944 824.056 655.25 819.5 655.25C814.944 655.25 811.25 658.944 811.25 663.5C811.25 668.056 814.944 671.75 819.5 671.75ZM819.5 670.25C815.772 670.25 812.75 667.228 812.75 663.5C812.75 659.772 815.772 656.75 819.5 656.75C823.228 656.75 826.25 659.772 826.25 663.5C826.25 667.228 823.228 670.25 819.5 670.25Z" fill="#F56843"/>
<path d="M706.142 786.75C708.744 786.75 710.892 784.871 710.892 782.5C710.892 780.129 708.744 778.25 706.142 778.25C703.539 778.25 701.392 780.129 701.392 782.5C701.392 784.871 703.539 786.75 706.142 786.75ZM706.142 785.25C704.326 785.25 702.892 783.995 702.892 782.5C702.892 781.005 704.326 779.75 706.142 779.75C707.957 779.75 709.392 781.005 709.392 782.5C709.392 783.995 707.957 785.25 706.142 785.25Z" fill="#F56843"/>
<path d="M819.5 667.75C822.103 667.75 824.25 665.871 824.25 663.5C824.25 661.129 822.103 659.25 819.5 659.25C816.897 659.25 814.75 661.129 814.75 663.5C814.75 665.871 816.897 667.75 819.5 667.75ZM819.5 666.25C817.684 666.25 816.25 664.995 816.25 663.5C816.25 662.005 817.684 660.75 819.5 660.75C821.316 660.75 822.75 662.005 822.75 663.5C822.75 664.995 821.316 666.25 819.5 666.25Z" fill="#F56843"/>
<path d="M379.136 472.054C386.991 479.226 404.145 482.421 430.661 481.75C457.123 481.08 475.914 477.053 487.058 469.624C487.402 469.394 487.495 468.929 487.266 468.584C487.036 468.239 486.57 468.146 486.226 468.376C475.369 475.614 456.827 479.587 430.623 480.25C404.472 480.912 387.626 477.774 380.147 470.946C379.841 470.667 379.367 470.688 379.088 470.994C378.808 471.3 378.83 471.775 379.136 472.054Z" fill="#F56843"/>
<path fill-rule="evenodd" clip-rule="evenodd" d="M1243.27 134.099C1218.44 142.644 1193.12 157.802 1167.33 179.573C1140.72 202.03 1112.02 232.859 1081.23 272.061L1115.84 305.478C1154.17 272.911 1183.98 243.154 1205.26 216.206C1225.91 190.072 1240.28 164.358 1248.4 139.065C1248.86 137.629 1248.46 136.057 1247.38 135.009C1246.29 133.959 1244.7 133.607 1243.27 134.099Z" fill="#FFD1D1"/>
<path fill-rule="evenodd" clip-rule="evenodd" d="M1204 153L1230.5 177.5C1244.83 151.5 1250.5 137.166 1247.5 134.5C1244.5 131.833 1230 138 1204 153Z" fill="#FFAFAF"/>
<path fill-rule="evenodd" clip-rule="evenodd" d="M1101.26 304.895L1085.5 324L1087 309.5L1074.5 312.5L1079.5 301.5H1065L1083.17 287.157L1078.52 282.597L1089.82 279.772L1090.18 281.228L1081.48 283.403L1105.14 306.595L1107.78 297.785L1109.22 298.216L1105.86 309.405L1101.26 304.895Z" fill="#F56843"/>
<path d="M1166.83 178.663C1140.18 201.156 1111.45 232.022 1080.63 271.261C1080.39 271.563 1080.42 271.997 1080.7 272.264L1115.3 305.681C1115.58 305.949 1116.01 305.962 1116.31 305.713C1154.68 273.116 1184.52 243.325 1205.84 216.335C1226.53 190.133 1240.95 164.341 1249.1 138.958C1249.64 137.25 1249.17 135.379 1247.88 134.133C1246.59 132.887 1244.71 132.47 1243.02 133.053C1218.08 141.631 1192.69 156.836 1166.83 178.663ZM1082.23 271.655C1112.83 232.744 1141.36 202.128 1167.8 179.81C1193.52 158.095 1218.76 142.984 1243.5 134.472C1244.67 134.072 1245.96 134.358 1246.84 135.212C1247.72 136.061 1248.04 137.336 1247.67 138.499C1239.58 163.701 1225.25 189.337 1204.66 215.405C1183.51 242.188 1153.9 271.764 1115.85 304.129L1082.23 271.655Z" fill="#F56843"/>
<path fill-rule="evenodd" clip-rule="evenodd" d="M1132.69 219L1128.23 226.942L1081.74 271.758L1046.95 273.828L1044 270.978L1132.69 219ZM1167.79 252.606L1117.37 342.191L1114.46 339.29L1115.93 304.467L1159.93 257.205L1167.79 252.606Z" fill="white"/>
<path d="M1131.82 218.709C1132.48 218.322 1133.23 219.057 1132.86 219.724L1128.4 227.665L1128.26 227.838L1081.78 272.655C1081.65 272.779 1081.48 272.853 1081.3 272.864L1046.51 274.933C1046.3 274.945 1046.09 274.87 1045.94 274.724L1042.99 271.874C1042.63 271.529 1042.7 270.938 1043.13 270.687L1131.82 218.709ZM1044.74 271.482L1046.75 273.416L1080.93 271.383L1127.14 226.835L1130.19 221.404L1044.74 271.482ZM1127.22 226.758L1127.09 226.931L1127.14 226.835L1127.22 226.758ZM1166.92 252.315C1167.58 251.928 1168.33 252.663 1167.95 253.33L1117.53 342.915C1117.29 343.348 1116.7 343.429 1116.35 343.078L1113.45 340.177C1113.3 340.028 1113.22 339.824 1113.23 339.615L1114.69 304.792C1114.7 304.613 1114.77 304.443 1114.89 304.312L1158.89 257.05L1159.06 256.914L1166.92 252.315ZM1159.91 258.153L1116.18 305.132L1114.74 339.349L1116.71 341.318L1165.29 255.008L1159.91 258.153Z" fill="#F56843"/>
<path d="M1189 211C1197.28 211 1204 204.284 1204 196C1204 187.716 1197.28 181 1189 181C1180.72 181 1174 187.716 1174 196C1174 204.284 1180.72 211 1189 211Z" fill="white"/>
<path d="M1189.2 211.4C1197.9 211.4 1204.95 204.348 1204.95 195.65C1204.95 186.951 1197.9 179.9 1189.2 179.9C1180.5 179.9 1173.45 186.951 1173.45 195.65C1173.45 204.348 1180.5 211.4 1189.2 211.4ZM1189.2 209.9C1181.33 209.9 1174.95 203.52 1174.95 195.65C1174.95 187.78 1181.33 181.4 1189.2 181.4C1197.07 181.4 1203.45 187.78 1203.45 195.65C1203.45 203.52 1197.07 209.9 1189.2 209.9Z" fill="#F56843"/>
<path d="M1189 203.75C1184.72 203.75 1181.25 200.28 1181.25 196C1181.25 191.72 1184.72 188.25 1189 188.25C1193.28 188.25 1196.75 191.72 1196.75 196C1196.75 200.28 1193.28 203.75 1189 203.75ZM1189 202.25C1192.45 202.25 1195.25 199.452 1195.25 196C1195.25 192.548 1192.45 189.75 1189 189.75C1185.55 189.75 1182.75 192.548 1182.75 196C1182.75 199.452 1185.55 202.25 1189 202.25ZM1203.49 153.048L1204.51 151.952L1231.24 176.952L1230.22 178.048L1203.49 153.048Z" fill="#F56843"/>
<path d="M679.6 470.865C658.925 483.882 644.683 496.281 636.874 508.086C629.073 519.881 622.046 539.789 615.768 567.836L617.232 568.164C623.474 540.28 630.447 520.522 638.125 508.914C645.797 497.316 659.888 485.048 680.4 472.135L679.6 470.865Z" fill="#F56843"/>
<path fill-rule="evenodd" clip-rule="evenodd" d="M389.891 640.548C397.952 643.415 405.41 645.594 412.265 647.084C418.972 648.542 426.853 649.802 435.907 650.863C437.827 651.088 439.202 652.827 438.977 654.747C438.959 654.895 438.933 655.042 438.897 655.187L438.799 655.58C438.303 657.569 436.384 658.861 434.354 658.572C425.936 657.375 418.073 656.046 410.765 654.584C403.351 653.101 395.868 650.541 388.315 646.904C386.67 646.112 385.807 644.272 386.25 642.5C386.624 641.005 388.138 640.097 389.633 640.47C389.72 640.492 389.806 640.518 389.891 640.548Z" fill="white"/>
<path d="M419.523 649.899C416.961 649.447 414.534 648.971 412.242 648.473C409.448 647.866 406.538 647.082 403.511 646.121L402.43 650.804C405.457 651.708 408.432 652.452 411.354 653.037C413.675 653.501 416.053 653.952 418.487 654.389L419.523 649.899ZM421.003 650.155L419.965 654.652C424.719 655.488 429.684 656.274 434.861 657.01C436.129 657.191 437.329 656.383 437.639 655.14L437.737 654.747C437.757 654.665 437.773 654.581 437.783 654.496C437.911 653.398 437.126 652.404 436.028 652.276C430.604 651.64 425.595 650.933 421.003 650.155ZM402.079 645.657C398.179 644.364 394.09 642.785 389.811 640.921C389.717 640.88 389.619 640.847 389.52 640.822C388.53 640.576 387.528 641.178 387.281 642.167L387.124 642.799C386.828 643.985 387.433 645.211 388.554 645.697C392.792 647.537 396.939 649.092 400.993 650.363L402.079 645.657ZM390.41 639.546C398.494 643.067 405.877 645.555 412.56 647.007C419.268 648.465 427.148 649.725 436.203 650.786C438.123 651.011 439.497 652.75 439.272 654.671C439.255 654.819 439.228 654.965 439.192 655.11L439.094 655.503C438.598 657.492 436.679 658.784 434.65 658.495C426.232 657.298 418.369 655.969 411.06 654.507C403.674 653.03 395.973 650.552 387.957 647.073C386.163 646.295 385.195 644.333 385.668 642.436L385.826 641.804C386.273 640.011 388.089 638.92 389.883 639.367C390.063 639.412 390.239 639.472 390.41 639.546Z" fill="#F56843"/>
<path fill-rule="evenodd" clip-rule="evenodd" d="M301 558.5L308 555.5L315 570L308 574.5L301 558.5ZM324.5 564C322.633 564 320.755 563.692 319.5 562.5C318.157 561.225 317.5 558.999 317.5 557C317.5 555.4 318.097 553.179 319 552C320.279 550.33 322.234 550 324.5 550C326.518 550 328.223 550.134 329.5 551.5C330.67 552.751 331.5 555.152 331.5 557C331.5 559.308 330.723 561.725 329 563C327.837 563.861 326.058 564 324.5 564Z" fill="#FFD1D1"/>
<path d="M300.51 558.108L308.864 554.528L316.464 570.272L308.166 575.607L300.51 558.108ZM308.835 573.393L314.536 569.728L308.136 556.472L302.49 558.892L308.835 573.393ZM325 564.75C322.606 564.75 320.773 564.268 319.484 563.044C318.055 561.687 317.25 559.346 317.25 557C317.25 555.162 317.932 552.813 318.905 551.544C320.217 549.83 322.074 549.25 325 549.25C327.786 549.25 329.258 549.609 330.548 550.988C331.83 552.359 332.75 554.927 332.75 557C332.75 559.736 331.77 562.253 329.946 563.603C328.78 564.466 327.215 564.75 325 564.75ZM325 563.25C326.913 563.25 328.223 563.012 329.054 562.397C330.446 561.367 331.25 559.301 331.25 557C331.25 555.292 330.462 553.092 329.452 552.012C328.528 551.024 327.404 550.75 325 550.75C322.495 550.75 321.059 551.199 320.095 552.456C319.339 553.443 318.75 555.472 318.75 557C318.75 558.967 319.42 560.915 320.516 561.956C321.468 562.859 322.954 563.25 325 563.25Z" fill="#F56843"/>
<path d="M693 348H606C604.343 348 603 349.343 603 351C603 352.657 604.343 354 606 354H693C694.657 354 696 352.657 696 351C696 349.343 694.657 348 693 348Z" fill="white"/>
<path d="M606 348H693C694.657 348 696 349.343 696 351C696 352.657 694.657 354 693 354H606C604.343 354 603 352.657 603 351C603 349.343 604.343 348 606 348ZM606 349.5C605.172 349.5 604.5 350.172 604.5 351C604.5 351.828 605.172 352.5 606 352.5H693C693.828 352.5 694.5 351.828 694.5 351C694.5 350.172 693.828 349.5 693 349.5H606Z" fill="#F56843"/>
<path d="M475.253 758.737L435.756 681.22C435.192 680.112 433.837 679.672 432.73 680.236C431.623 680.8 431.182 682.155 431.747 683.263L471.244 760.78C471.808 761.887 473.163 762.328 474.27 761.763C475.377 761.199 475.817 759.844 475.253 758.737Z" fill="white" stroke="#F56843" stroke-width="1.5"/>
<path fill-rule="evenodd" clip-rule="evenodd" d="M451.117 559.308C448.268 561.723 434.916 551.471 432.06 550.263C430.525 549.613 429.807 547.842 430.456 546.307C431.052 544.9 432.605 544.16 434.073 544.583C442.845 547.116 447.79 548.952 448.908 550.093C451.742 552.984 453.966 556.893 451.117 559.308Z" fill="white"/>
<path fill-rule="evenodd" clip-rule="evenodd" d="M518.327 627.476L548.194 608.557C548.661 608.261 549.279 608.4 549.574 608.867C549.581 608.878 549.588 608.89 549.595 608.901L561.024 628.675C561.29 629.137 561.148 629.727 560.7 630.016L531.365 648.942C530.901 649.241 530.282 649.108 529.983 648.643C529.978 648.635 529.972 648.627 529.967 648.619L518.007 628.838C517.725 628.372 517.868 627.767 518.327 627.476Z" fill="white"/>
<path d="M516.922 627.779L548.3 608.172C548.768 607.879 549.385 608.021 549.678 608.49L562.396 628.843C562.689 629.311 562.546 629.928 562.078 630.221L530.7 649.828C530.232 650.121 529.615 649.978 529.322 649.51L516.604 629.157C516.311 628.688 516.454 628.071 516.922 627.779ZM518.141 628.786L530.329 648.291L560.859 629.214L548.671 609.709L518.141 628.786Z" fill="#F56843"/>
<path d="M524.48 628.085L544.833 615.367C545.302 615.074 545.919 615.217 546.211 615.685L554.69 629.254C554.983 629.722 554.84 630.339 554.372 630.632L534.019 643.35C533.55 643.642 532.933 643.5 532.641 643.032L524.162 629.463C523.869 628.994 524.012 628.377 524.48 628.085ZM533.648 641.813L553.153 629.624L545.204 616.904L525.699 629.092L533.648 641.813Z" fill="#F56843"/>
</svg>
